<?xml version="1.0" standalone="no"?>
<!DOCTYPE svg PUBLIC "-//W3C//DTD SVG 20010904//EN"
 "http://www.w3.org/TR/2001/REC-SVG-20010904/DTD/svg10.dtd">
<svg version="1.0" xmlns="http://www.w3.org/2000/svg"
 width="1024.000000pt" height="1024.000000pt" viewBox="0 0 1024.000000 1024.000000"
 preserveAspectRatio="xMidYMid meet">
<metadata>
Created by potrace 1.14, written by Peter Selinger 2001-2017
</metadata>
<g transform="translate(0.000000,1024.000000) scale(0.100000,-0.100000)"
fill="#000000" stroke="none">
<path d="M5366 9635 c2 -5 -5 -16 -17 -23 -12 -8 -18 -9 -15 -3 4 5 2 12 -4
16 -5 3 -10 1 -10 -6 0 -7 -7 -4 -15 7 -15 19 -15 19 -8 -1 6 -18 5 -19 -12
-5 -10 8 -16 10 -12 4 4 -7 0 -15 -9 -18 -8 -3 -12 -2 -9 3 3 5 1 12 -5 16 -5
3 -10 0 -10 -7 0 -9 -3 -9 -10 2 -6 10 -10 11 -10 3 0 -7 -4 -13 -10 -13 -5 0
-7 8 -4 18 5 16 5 16 -6 0 -11 -18 -36 -26 -26 -9 4 5 -5 4 -19 -2 -14 -7 -23
-17 -21 -23 3 -8 -9 -10 -36 -7 -28 4 -38 2 -34 -6 5 -7 -2 -11 -18 -12 -44
-2 -51 -5 -49 -15 1 -6 -13 -9 -30 -8 -18 1 -37 -2 -44 -7 -7 -7 -13 -6 -17 0
-4 6 -13 8 -21 5 -8 -4 -12 -11 -8 -17 4 -6 1 -7 -6 -3 -7 5 -18 0 -27 -10
-12 -17 -13 -17 -8 -1 6 18 -10 24 -21 7 -3 -5 -11 -10 -16 -10 -6 0 -7 5 -3
12 4 7 3 8 -4 4 -7 -4 -12 -15 -13 -24 0 -11 -2 -13 -6 -4 -4 10 -8 10 -21 0
-9 -8 -13 -8 -9 -2 4 7 0 14 -8 18 -8 3 -14 2 -14 -2 4 -22 -4 -28 -31 -26
-16 1 -30 -1 -30 -4 0 -4 -11 -12 -25 -19 -14 -6 -23 -7 -19 -2 3 5 0 9 -5 9
-6 0 -11 -5 -11 -11 0 -5 -4 -8 -9 -5 -5 4 -12 0 -14 -6 -4 -9 -6 -9 -6 1 -1
11 -5 10 -16 -5 -13 -16 -16 -17 -25 -4 -8 13 -10 12 -11 -5 l0 -20 -9 20 c-8
19 -9 19 -9 1 -1 -11 -4 -16 -8 -13 -3 4 -13 1 -21 -6 -13 -10 -15 -9 -8 3 4
8 0 6 -8 -4 -9 -11 -16 -16 -16 -12 0 5 -8 2 -17 -5 -14 -12 -16 -12 -8 0 6
11 3 11 -14 -2 -13 -8 -29 -13 -36 -11 -7 3 -15 -2 -19 -11 -4 -12 -10 -14
-26 -5 -16 9 -19 8 -13 -6 4 -10 1 -15 -8 -14 -28 4 -40 0 -33 -12 5 -10 4
-10 -6 -1 -11 10 -17 9 -32 -4 -18 -16 -18 -16 -12 1 6 16 5 17 -15 5 -11 -8
-21 -17 -21 -22 0 -4 -6 -5 -12 0 -7 4 -19 8 -26 9 -11 2 -11 0 0 -14 10 -13
10 -14 0 -8 -7 4 -19 3 -26 -3 -11 -9 -40 -18 -69 -20 -5 -1 -5 -5 -2 -11 3
-5 1 -10 -4 -10 -6 0 -11 8 -12 18 0 13 -3 12 -11 -5 -6 -13 -15 -23 -20 -23
-5 0 -6 6 -2 13 5 8 2 8 -9 -2 -14 -11 -17 -11 -17 0 0 11 -2 11 -10 -1 -5 -8
-10 -12 -10 -7 0 4 -11 0 -25 -9 -21 -14 -28 -14 -42 -3 -15 12 -16 12 -10 -5
6 -16 5 -17 -8 -6 -10 8 -15 9 -15 1 0 -6 -12 -9 -29 -7 -21 2 -28 -1 -27 -13
1 -10 -6 -15 -15 -13 -9 1 -19 -5 -23 -13 -4 -12 -10 -13 -25 -6 -14 8 -20 7
-25 -4 -3 -9 -12 -12 -22 -8 -12 4 -15 3 -10 -5 5 -8 2 -10 -8 -6 -9 3 -16 1
-16 -4 0 -6 -9 -9 -20 -7 -11 2 -20 -1 -20 -6 0 -6 -4 -7 -10 -4 -5 3 -10 1
-10 -4 0 -6 -6 -10 -12 -9 -7 2 -12 -3 -10 -10 1 -8 -2 -11 -8 -7 -6 4 -17 1
-25 -5 -8 -6 -20 -8 -26 -4 -8 5 -9 3 -5 -5 5 -8 0 -14 -14 -18 -16 -4 -18 -8
-8 -14 9 -6 9 -9 1 -9 -6 0 -15 5 -18 10 -5 8 -11 7 -21 -1 -7 -6 -11 -16 -8
-21 4 -6 -4 -4 -17 3 -22 11 -23 11 -10 -4 12 -15 11 -17 -3 -17 -9 0 -16 -4
-16 -9 0 -6 -9 -8 -20 -6 -11 2 -19 1 -16 -3 2 -4 -2 -13 -10 -20 -11 -10 -14
-10 -14 0 -1 7 -7 2 -15 -12 -8 -14 -14 -20 -15 -13 0 7 -7 10 -16 6 -13 -5
-13 -7 -2 -14 9 -6 7 -9 -9 -9 -17 0 -21 -4 -16 -17 6 -16 5 -16 -10 -4 -15
12 -17 12 -11 -2 4 -12 0 -15 -19 -13 -20 3 -23 -1 -19 -18 5 -19 4 -19 -11
-7 -15 12 -17 12 -12 -2 4 -8 1 -18 -6 -23 -8 -5 -10 -3 -5 7 4 8 1 6 -7 -3
-8 -10 -16 -16 -19 -13 -2 3 -11 -7 -18 -21 -9 -16 -20 -24 -32 -21 -9 3 -17
2 -17 -2 3 -19 -15 -49 -34 -57 -12 -6 -17 -9 -10 -8 7 2 10 -3 7 -10 -3 -8
-15 -12 -27 -10 -12 2 -16 2 -9 -2 20 -10 13 -22 -10 -18 -13 2 -17 1 -10 -2
9 -4 5 -13 -15 -31 -15 -14 -21 -22 -13 -17 12 6 13 5 3 -8 -7 -8 -10 -18 -6
-22 4 -4 -1 -4 -10 0 -12 4 -17 2 -15 -7 2 -8 -3 -13 -10 -11 -8 1 -11 -2 -8
-7 4 -5 -5 -22 -19 -37 -13 -14 -22 -31 -18 -37 3 -5 2 -8 -3 -5 -11 6 -45
-28 -37 -36 4 -3 1 -6 -6 -6 -8 0 -11 -8 -8 -20 3 -11 0 -18 -7 -17 -6 1 -10
-4 -8 -12 2 -8 -3 -11 -12 -8 -11 4 -13 1 -9 -10 5 -12 2 -15 -8 -11 -10 4
-15 -1 -15 -13 0 -10 5 -15 11 -11 6 4 -1 -4 -15 -17 -14 -13 -18 -20 -10 -16
8 4 5 -2 -7 -12 -16 -12 -21 -26 -18 -41 3 -20 2 -22 -11 -11 -12 10 -13 9 -8
-5 4 -9 1 -16 -6 -16 -10 0 -10 -3 0 -15 10 -12 8 -13 -10 -10 -18 3 -20 2
-10 -10 10 -12 10 -15 0 -15 -7 0 -10 -7 -6 -15 3 -9 0 -15 -9 -15 -8 0 -15
-7 -15 -15 0 -8 -5 -15 -11 -15 -9 0 -9 -4 0 -13 8 -11 6 -18 -12 -33 l-22
-19 20 25 20 25 -21 -18 c-18 -15 -31 -52 -14 -42 16 10 2 -46 -14 -58 -12 -9
-15 -16 -8 -20 13 -9 -9 -59 -23 -53 -7 2 -10 -13 -10 -39 1 -36 -2 -44 -18
-49 -17 -4 -18 -8 -8 -20 10 -11 8 -19 -11 -37 -13 -12 -17 -19 -11 -15 9 5
11 2 7 -8 -3 -9 -10 -14 -14 -11 -5 3 -6 -9 -3 -26 3 -23 1 -29 -8 -23 -9 5
-10 2 -6 -9 4 -10 2 -17 -4 -17 -6 0 -9 -7 -5 -15 4 -11 -1 -15 -17 -15 -16 0
-18 -3 -8 -9 9 -6 10 -11 2 -15 -6 -4 -9 -12 -5 -17 3 -5 10 -6 16 -3 7 4 8 2
4 -5 -4 -6 -12 -9 -17 -6 -5 4 -9 -3 -9 -15 0 -12 -4 -18 -10 -15 -5 3 -10 1
-10 -4 0 -6 5 -11 11 -11 5 0 7 -5 4 -10 -4 -6 -11 -8 -16 -5 -5 3 -6 -1 -3
-9 4 -9 1 -16 -6 -16 -9 0 -9 -4 1 -17 10 -11 10 -14 2 -9 -9 5 -13 1 -13 -13
0 -10 -5 -21 -11 -23 -6 -2 -12 -18 -12 -35 -1 -25 -5 -29 -15 -21 -9 8 -11 7
-6 -6 3 -9 0 -24 -7 -33 -12 -14 -12 -16 0 -8 10 5 12 4 7 -3 -4 -7 -14 -12
-22 -12 -8 0 -13 -4 -9 -10 3 -5 13 -6 23 -3 11 4 8 -2 -8 -16 -14 -12 -18
-20 -10 -16 12 5 12 4 -1 -7 -9 -7 -16 -21 -17 -30 -4 -42 -6 -48 -12 -48 -4
0 -6 -11 -5 -25 2 -15 -2 -25 -10 -25 -7 0 -16 -7 -19 -16 -4 -10 -2 -13 7 -9
6 4 4 0 -5 -8 -18 -14 -24 -29 -10 -24 4 1 7 -2 7 -8 0 -5 -7 -8 -15 -6 -8 1
-12 0 -8 -5 4 -4 3 -13 -4 -21 -9 -11 -7 -12 8 -7 14 4 13 1 -6 -15 -14 -11
-19 -21 -12 -21 10 0 9 -4 -2 -16 -9 -8 -14 -19 -11 -24 3 -5 1 -11 -5 -15 -6
-4 -8 -10 -5 -15 3 -4 -1 -10 -9 -13 -9 -4 -12 -15 -8 -33 3 -19 1 -25 -7 -20
-6 4 -11 3 -11 -3 0 -5 4 -12 10 -16 14 -9 -1 -37 -17 -31 -9 4 -11 2 -6 -7
14 -22 12 -36 -5 -29 -14 5 -15 3 -4 -10 13 -16 13 -39 0 -48 -4 -3 -9 -15
-11 -25 -1 -11 -6 -26 -10 -32 -5 -8 -3 -13 3 -13 6 0 8 -5 5 -10 -4 -6 -12
-7 -18 -3 -7 4 -6 0 2 -10 7 -10 9 -17 3 -17 -6 0 -9 -12 -7 -26 1 -14 -4 -31
-11 -38 -7 -8 -10 -16 -7 -20 4 -3 1 -6 -7 -6 -10 0 -10 -3 0 -15 10 -12 9
-16 -3 -21 -9 -3 -13 -12 -10 -21 5 -12 3 -14 -8 -8 -8 5 -5 -2 6 -15 11 -13
15 -20 8 -16 -16 9 -24 -26 -20 -77 2 -27 -1 -41 -12 -47 -12 -7 -13 -9 -2
-10 11 0 11 -3 0 -17 -8 -9 -9 -14 -4 -11 6 4 11 -2 11 -12 0 -14 -4 -16 -12
-9 -9 7 -12 5 -9 -8 1 -10 -2 -26 -7 -35 -6 -13 -5 -18 4 -18 7 0 2 -7 -10
-16 -18 -13 -21 -19 -11 -30 9 -11 8 -14 -2 -14 -11 0 -11 -2 1 -10 13 -9 7
-14 -12 -11 -13 2 -9 -17 5 -22 9 -4 8 -6 -2 -6 -10 -1 -11 -4 -2 -15 10 -11
9 -14 -1 -12 -7 1 -18 5 -24 8 -6 4 -11 1 -11 -7 0 -8 4 -12 9 -9 4 3 8 0 8
-6 0 -6 6 -8 13 -5 6 4 4 0 -5 -8 -10 -8 -18 -20 -18 -26 0 -7 -5 -9 -12 -5
-7 4 -8 3 -4 -5 4 -6 2 -19 -5 -27 -10 -12 -9 -13 7 -7 17 6 17 5 5 -10 -12
-15 -12 -17 3 -11 12 5 15 2 10 -9 -3 -9 -11 -18 -18 -20 -7 -3 -11 -24 -10
-55 1 -38 -1 -49 -11 -46 -7 3 -16 0 -21 -7 -4 -7 -3 -10 3 -6 6 4 14 0 17 -9
4 -11 2 -15 -8 -11 -10 4 -13 1 -9 -9 3 -8 -1 -22 -8 -31 -10 -12 -10 -15 -1
-9 6 4 12 3 12 -3 0 -5 -4 -12 -9 -16 -6 -3 -6 -18 0 -37 5 -20 5 -36 -2 -44
-5 -6 -8 -24 -5 -38 3 -15 -1 -32 -10 -41 -10 -9 -11 -15 -4 -15 7 0 5 -7 -5
-16 -12 -12 -13 -19 -4 -30 6 -8 8 -14 4 -14 -4 0 -2 -7 5 -15 11 -13 10 -15
-6 -9 -18 5 -18 5 0 -10 11 -9 14 -16 7 -16 -7 0 -9 -5 -6 -10 3 -6 0 -12 -7
-15 -17 -7 -21 -45 -5 -45 8 0 8 -3 2 -8 -5 -4 -10 -25 -10 -47 0 -23 -5 -39
-11 -38 -6 1 -11 -4 -11 -12 0 -8 5 -11 11 -8 6 4 5 -1 -3 -10 -11 -14 -11
-17 0 -17 8 0 5 -6 -7 -15 -13 -10 -14 -13 -3 -10 20 7 19 -26 -2 -51 -8 -10
-9 -15 -2 -11 6 4 14 3 17 -2 4 -5 2 -13 -4 -16 -8 -5 -8 -11 0 -20 8 -10 8
-15 -1 -21 -8 -5 -9 -3 -4 7 8 12 6 12 -8 0 -18 -14 -23 -26 -8 -16 5 3 12 1
15 -4 3 -5 -1 -12 -10 -15 -9 -4 -12 -11 -7 -18 9 -16 11 -68 3 -68 -11 0 -8
-35 4 -43 8 -6 7 -10 -1 -14 -7 -2 -13 -9 -13 -14 0 -6 4 -8 8 -5 8 5 9 -41 0
-49 -3 -3 -4 -19 -2 -35 2 -17 -1 -30 -7 -30 -6 0 -3 -7 6 -16 12 -12 13 -19
4 -30 -6 -8 -16 -11 -23 -7 -6 3 -7 2 -3 -3 5 -5 13 -9 18 -9 5 0 8 -4 7 -10
-2 -5 -7 -9 -13 -7 -5 2 -5 -2 2 -9 6 -6 9 -18 6 -27 -5 -11 -3 -13 8 -7 11 7
12 6 3 -6 -6 -8 -10 -26 -9 -41 1 -16 -3 -28 -9 -28 -6 0 -5 -4 3 -9 18 -11 6
-45 -11 -35 -9 5 -9 3 1 -9 15 -19 26 -23 15 -5 -4 7 -3 8 5 4 6 -4 8 -13 4
-19 -11 -18 -11 -57 0 -57 6 0 3 -6 -8 -13 -14 -11 -15 -16 -5 -22 9 -6 11 -4
5 5 -5 9 -4 11 4 6 6 -4 8 -13 4 -19 -10 -16 -11 -47 -1 -74 4 -12 3 -25 -1
-27 -5 -3 -9 -17 -9 -31 0 -14 5 -22 11 -18 6 4 7 1 1 -8 -12 -19 -12 -119 0
-119 5 0 2 -6 -9 -13 -14 -11 -15 -16 -5 -22 9 -6 11 -4 5 5 -5 9 -4 11 4 6 6
-4 8 -13 4 -19 -11 -17 -11 -77 -1 -83 5 -3 4 -12 -3 -20 -9 -11 -9 -14 1 -14
10 0 10 -3 0 -15 -7 -8 -8 -15 -3 -15 5 0 9 -9 9 -19 0 -11 -4 -17 -8 -15 -4
3 -8 0 -8 -5 0 -6 5 -11 10 -11 6 0 10 -5 10 -11 0 -5 -5 -7 -10 -4 -6 4 -9 1
-8 -7 2 -7 12 -18 23 -25 13 -8 15 -12 6 -13 -8 0 -11 -3 -8 -7 4 -3 2 -12 -5
-20 -8 -11 -7 -12 5 -7 16 6 18 -10 4 -33 -4 -6 -3 -15 3 -18 8 -5 7 -11 -1
-21 -9 -11 -8 -14 2 -14 12 0 12 -2 0 -9 -10 -7 -11 -9 -1 -13 8 -2 14 -23 15
-50 1 -25 6 -51 10 -58 6 -10 4 -12 -8 -7 -9 3 -19 1 -23 -5 -4 -6 -3 -8 4 -4
12 7 26 -29 17 -44 -3 -5 -1 -10 6 -10 9 0 9 -3 0 -14 -9 -10 -9 -16 -1 -21 6
-4 8 -16 5 -28 -2 -12 -2 -16 1 -9 3 6 11 12 16 12 6 0 8 -3 5 -6 -3 -4 -1
-16 5 -28 9 -18 9 -19 -3 -11 -8 6 -7 3 3 -7 13 -12 15 -18 6 -21 -10 -4 -10
-6 0 -6 6 -1 12 -6 12 -12 0 -5 -6 -7 -12 -3 -8 5 -7 0 2 -11 8 -10 14 -26 12
-37 -2 -10 3 -18 10 -18 9 0 9 -3 -2 -10 -13 -9 -13 -10 0 -10 13 0 13 -1 0
-10 -12 -8 -10 -10 10 -11 23 0 23 -1 5 -9 -11 -5 -14 -9 -6 -9 8 -1 11 -8 8
-21 -3 -10 0 -21 7 -24 6 -2 2 -5 -9 -5 -16 -1 -17 -3 -5 -10 8 -6 18 -7 23
-4 5 3 6 -4 2 -16 -4 -14 -2 -21 7 -21 10 0 9 -3 -2 -10 -13 -8 -12 -10 4 -10
11 0 16 -3 13 -6 -3 -4 -2 -16 4 -28 9 -20 9 -20 -4 -3 -10 12 -17 14 -22 8
-3 -6 -1 -11 5 -11 7 0 9 -9 5 -22 -4 -16 -4 -19 3 -9 6 8 15 10 22 6 10 -6 9
-11 -5 -22 -17 -12 -11 -18 16 -15 3 1 6 -5 6 -13 0 -8 -4 -12 -9 -9 -4 3 -8
1 -8 -5 0 -5 6 -12 13 -14 9 -4 9 -6 -1 -6 -9 -1 -6 -8 7 -22 11 -12 17 -27
15 -34 -3 -7 1 -19 9 -26 13 -12 13 -16 1 -30 -12 -13 -12 -16 1 -16 8 0 12 4
9 9 -3 4 0 8 6 8 7 0 9 -8 5 -20 -3 -11 -2 -20 3 -20 6 0 13 -7 16 -16 5 -14
4 -15 -9 -4 -13 11 -14 10 -9 -4 3 -9 12 -16 20 -16 8 0 14 -4 14 -10 0 -5 -8
-7 -18 -4 -15 5 -15 4 1 -6 14 -9 16 -15 6 -26 -9 -11 -8 -14 5 -14 10 0 14
-4 11 -10 -3 -5 -1 -10 6 -10 8 0 8 -4 -1 -15 -7 -9 -10 -18 -6 -22 3 -3 6 -1
6 6 0 9 4 9 14 -1 10 -9 11 -15 2 -20 -8 -5 -7 -8 3 -8 11 0 11 -3 0 -17 -13
-15 -12 -15 11 -3 14 7 22 9 18 5 -4 -5 -2 -15 5 -24 11 -14 10 -14 -6 -2 -15
12 -17 12 -11 -2 3 -9 13 -18 22 -20 15 -4 15 -5 0 -6 -11 -1 -15 -6 -12 -16
4 -8 11 -12 17 -8 6 4 8 -2 5 -15 -4 -12 -1 -25 4 -29 7 -3 8 -1 4 5 -4 7 -2
12 3 12 15 0 14 -27 -1 -33 -7 -3 -2 -6 11 -6 20 -1 21 -3 11 -16 -10 -12 -9
-16 4 -21 9 -3 13 -10 10 -15 -3 -5 0 -9 7 -9 8 0 5 -9 -7 -22 -10 -13 -12
-18 -5 -11 12 10 18 8 33 -9 22 -25 24 -35 3 -18 -9 8 -15 8 -15 2 0 -6 9 -14
20 -17 11 -4 17 -11 14 -17 -4 -6 1 -17 11 -24 16 -12 16 -16 4 -31 -9 -11
-10 -14 -1 -9 8 5 12 1 12 -11 0 -15 2 -16 10 -3 8 13 10 12 10 -3 0 -10 7
-25 15 -34 8 -8 13 -18 10 -23 -3 -4 1 -10 9 -13 9 -4 12 -14 9 -26 -3 -12
-10 -18 -16 -14 -6 3 -7 1 -3 -5 5 -8 13 -9 26 -2 15 8 17 6 13 -13 -4 -18 -3
-19 6 -7 9 12 11 11 11 -8 0 -15 -4 -21 -12 -16 -7 4 -8 3 -4 -4 4 -6 13 -9
21 -5 10 3 15 -1 15 -12 0 -10 7 -23 16 -30 15 -10 15 -13 1 -27 -9 -9 -13
-18 -10 -22 3 -3 12 2 19 12 12 16 13 15 11 -5 -1 -13 -6 -23 -11 -23 -5 0 -6
-3 -3 -6 4 -4 14 -1 24 7 9 8 14 9 10 3 -4 -7 0 -15 8 -18 8 -3 15 -9 14 -13
-3 -20 2 -34 11 -28 6 3 10 -3 10 -15 0 -13 4 -19 11 -14 7 4 7 -1 -1 -16 -8
-15 -8 -20 -1 -16 6 4 11 1 11 -6 0 -9 3 -9 10 2 8 12 10 11 10 -7 0 -12 -6
-24 -12 -27 -7 -3 -2 -3 11 0 19 5 23 3 18 -9 -4 -12 -2 -14 11 -10 15 6 16 5
2 -12 -9 -11 -10 -16 -2 -11 7 4 12 2 12 -4 0 -6 4 -8 10 -5 5 3 10 -1 10 -9
0 -9 5 -16 11 -16 7 0 9 -9 6 -21 -5 -17 -3 -18 11 -7 12 10 14 10 8 1 -4 -8
-2 -13 4 -13 6 0 9 -3 7 -7 -5 -9 38 -54 45 -48 2 2 4 -5 4 -15 0 -11 -5 -20
-10 -20 -5 0 -7 -3 -4 -6 4 -3 15 -1 26 5 18 9 19 8 15 -12 -3 -12 -2 -19 2
-14 5 4 15 -5 22 -20 12 -27 13 -27 8 -3 -4 21 -2 19 12 -8 9 -18 23 -30 29
-28 8 3 11 -1 7 -10 -3 -7 -1 -14 4 -14 12 0 53 -35 53 -45 0 -4 -11 0 -25 9
-14 9 -25 14 -25 10 0 -4 -6 -1 -13 5 -10 8 -14 7 -14 -3 0 -8 7 -13 16 -11 9
1 24 -4 35 -11 10 -7 25 -10 32 -7 8 3 14 0 14 -6 0 -6 -5 -11 -12 -11 -6 0
-8 -3 -5 -6 4 -4 13 -2 20 4 11 9 17 6 27 -13 7 -14 17 -25 21 -25 5 0 5 -8 2
-17 -6 -16 -5 -17 12 -3 10 8 16 10 12 4 -3 -5 3 -23 14 -40 10 -16 19 -24 19
-17 0 6 -4 15 -10 18 -6 3 -10 11 -10 17 0 6 9 1 20 -12 11 -13 20 -20 20 -16
0 4 6 1 14 -6 8 -7 12 -16 9 -20 -2 -5 3 -8 11 -8 19 0 20 -11 4 -30 -11 -12
-10 -12 2 -3 16 11 47 10 58 -3 4 -4 -2 -4 -13 0 -11 4 -16 4 -12 0 4 -4 1
-14 -6 -22 -11 -13 -9 -14 10 -1 20 12 25 11 40 -5 17 -18 17 -18 -7 -7 -23
11 -23 11 -7 -2 10 -8 26 -13 36 -10 10 3 22 -1 26 -8 5 -7 4 -10 -1 -6 -6 3
-16 2 -23 -2 -7 -5 -1 -8 19 -9 19 0 28 3 24 10 -4 6 -2 8 4 4 6 -3 9 -15 7
-26 -3 -16 -1 -19 12 -11 11 6 21 4 31 -6 12 -12 16 -12 23 -1 5 7 9 8 9 2 0
-5 -6 -16 -12 -23 -11 -11 -9 -11 10 -2 12 7 22 8 21 4 -3 -20 2 -31 17 -37
12 -5 14 -3 8 7 -5 7 -1 5 8 -6 10 -10 23 -15 29 -11 8 4 9 3 5 -4 -7 -11 6
-17 27 -13 5 1 5 -4 1 -11 -12 -19 -14 -39 -3 -32 5 3 7 9 4 14 -3 4 1 10 9
13 15 6 16 -9 1 -33 -7 -12 -6 -13 6 -3 12 10 18 10 29 0 9 -8 11 -9 6 0 -3 6
-2 14 4 18 5 3 10 -2 10 -11 0 -10 3 -14 7 -11 3 4 12 -1 20 -11 8 -9 12 -11
8 -5 -4 9 -1 11 10 7 12 -5 13 -10 6 -17 -6 -6 -11 -15 -11 -20 0 -5 8 -1 17
8 16 16 17 16 24 -3 10 -26 28 -37 41 -24 7 7 5 10 -7 9 -10 -1 -20 5 -22 13
-4 12 -3 13 5 1 5 -7 14 -11 20 -7 6 3 14 1 17 -4 7 -12 55 -34 68 -32 4 1 6
-3 5 -10 -2 -7 2 -13 7 -13 24 -4 45 -18 45 -31 0 -8 7 -14 16 -14 9 0 23 -8
31 -18 14 -16 14 -16 9 3 -5 17 -3 16 14 -5 15 -19 18 -20 13 -6 -4 13 -3 17
5 12 7 -4 12 -13 12 -20 0 -13 35 -30 54 -27 4 1 14 -4 22 -10 8 -6 14 -8 14
-4 0 5 9 0 19 -9 12 -11 37 -18 65 -19 25 0 46 -5 46 -9 0 -4 14 -8 31 -8 16
0 28 -3 25 -8 -2 -4 7 -13 22 -20 19 -9 23 -9 14 0 -21 21 -13 29 11 13 13 -8
27 -12 32 -8 4 5 5 3 2 -3 -5 -8 6 -12 31 -12 34 -1 115 -32 83 -32 -8 0 -11
-3 -7 -7 4 -5 14 1 22 11 13 18 14 18 23 -5 9 -21 10 -22 11 -4 2 17 3 16 10
-5 6 -18 8 -20 9 -7 1 10 6 15 11 12 6 -4 7 -12 3 -18 -3 -7 3 -4 14 6 15 13
23 15 28 7 4 -6 4 -14 1 -17 -3 -4 -6 -1 -6 6 0 7 -4 9 -10 6 -6 -4 -5 -11 2
-19 11 -11 15 -10 25 3 7 9 13 12 13 7 0 -5 8 -2 17 5 9 8 14 9 10 3 -4 -7 3
-12 18 -13 48 -3 55 -4 55 -13 0 -5 6 -6 13 -1 17 10 57 12 51 1 -3 -4 0 -8 6
-8 6 0 8 -5 4 -12 -4 -7 -3 -8 5 -4 6 4 9 11 6 16 -3 5 -1 11 4 14 5 4 12 2
16 -4 4 -6 11 -7 17 -4 6 4 14 0 19 -7 4 -8 4 -16 -2 -20 -7 -4 -5 -8 4 -12
11 -4 15 0 12 14 -2 12 2 19 11 19 9 0 12 -5 8 -12 -5 -8 -3 -8 7 -2 8 5 23 9
34 9 11 0 26 5 34 9 10 6 12 5 7 -3 -4 -6 0 -14 9 -17 13 -6 14 -8 3 -15 -9
-6 -9 -9 -1 -9 7 0 17 8 22 18 10 16 10 15 11 -3 0 -12 3 -16 8 -9 8 12 74 25
67 13 -3 -4 2 -10 11 -13 8 -3 12 -2 9 4 -3 6 1 10 10 10 10 0 14 -5 10 -12
-4 -7 1 -4 9 6 9 11 16 15 16 8 0 -7 7 -9 17 -5 13 5 15 2 10 -11 -4 -10 -3
-15 3 -11 6 3 10 13 10 21 0 12 4 13 23 3 19 -10 20 -10 10 2 -9 12 -4 14 30
13 23 0 48 4 55 9 9 7 11 5 6 -9 -7 -18 -6 -18 12 -3 17 13 34 17 49 9 3 -1
10 -3 15 -4 6 0 15 -8 20 -16 8 -13 10 -13 10 -1 0 12 3 12 12 3 7 -7 16 -12
22 -12 5 0 1 6 -9 14 -11 8 -24 12 -29 9 -5 -4 -6 -1 -2 5 4 8 15 8 31 2 21
-8 25 -6 26 8 0 10 3 12 6 5 2 -7 9 -13 14 -13 6 0 7 5 4 10 -3 6 -2 10 4 10
5 0 12 -6 14 -12 4 -8 8 -4 12 9 4 13 11 20 16 17 5 -3 7 -9 4 -14 -3 -5 0
-12 6 -16 8 -4 9 -3 5 4 -4 7 -2 12 4 12 6 0 9 4 6 9 -4 5 2 8 11 6 10 -1 26
2 37 7 13 7 16 7 12 -1 -4 -6 -2 -11 4 -11 6 0 9 -4 5 -9 -3 -5 -1 -12 4 -15
5 -4 7 8 5 26 -4 24 -2 29 5 18 8 -12 13 -12 23 -2 16 16 92 17 82 0 -4 -7 -3
-8 5 -4 9 6 9 11 0 22 -9 11 -8 14 5 14 10 0 26 -4 36 -10 15 -8 17 -6 14 13
-2 12 -2 17 1 11 3 -7 15 -9 27 -6 16 4 19 2 13 -8 -6 -9 -4 -11 4 -6 7 5 10
13 8 20 -3 7 7 12 27 13 46 1 99 13 115 26 12 9 13 9 7 0 -4 -7 -2 -13 3 -13
6 0 11 6 11 14 0 8 5 18 12 22 7 4 8 3 4 -4 -4 -7 -3 -12 3 -12 5 0 13 5 16
11 4 6 13 8 19 6 7 -3 19 -1 27 5 11 8 9 8 -6 4 l-20 -6 20 15 c18 14 20 14
23 1 2 -9 7 -16 12 -16 5 0 7 7 4 15 -5 11 -2 13 12 8 14 -5 16 -3 11 12 -7
16 -5 16 10 4 14 -12 16 -12 11 1 -4 11 2 15 19 16 13 1 32 9 43 19 13 12 20
13 26 4 4 -7 3 -10 -4 -5 -6 3 -13 3 -16 -2 -2 -4 6 -8 19 -8 13 0 21 5 18 12
-3 8 6 10 27 8 25 -3 31 -1 27 11 -4 9 -1 12 9 8 7 -3 14 -10 14 -16 0 -6 3
-7 7 -4 3 4 -2 17 -13 29 -18 21 -18 22 0 8 16 -13 20 -12 32 5 8 10 14 13 14
7 0 -7 5 -12 11 -12 5 0 8 4 5 9 -5 8 6 16 27 20 15 2 44 36 39 46 -3 6 5 1
19 -10 14 -12 19 -14 11 -4 -10 13 -9 19 5 30 14 12 16 12 8 0 -5 -10 -4 -12
4 -7 7 4 9 16 5 28 -5 18 -4 18 16 8 12 -6 24 -9 28 -6 3 3 -1 6 -9 6 -10 1
-8 5 6 16 11 8 20 20 20 26 0 6 11 13 25 15 38 5 52 12 45 22 -3 5 -1 12 5 16
5 3 10 1 10 -4 0 -6 4 -11 9 -11 5 0 8 11 7 24 -2 17 1 23 11 19 8 -3 13 0 11
8 -2 7 3 14 10 15 6 1 16 2 20 3 5 0 15 12 22 26 7 14 17 25 22 25 11 0 39 26
39 37 0 4 3 10 6 13 4 3 3 -1 -1 -7 -4 -7 -2 -13 4 -13 6 0 8 -5 4 -12 -4 -6
-3 -8 3 -5 6 4 9 18 7 32 -2 26 -2 26 22 10 l25 -16 -16 25 c-16 24 -14 31 8
27 4 0 7 4 7 10 0 5 5 7 12 3 8 -5 9 -2 4 11 -5 15 -4 16 8 6 13 -11 15 -9 11
9 -4 19 -2 20 12 8 12 -9 15 -9 9 0 -4 6 -2 12 3 12 6 0 10 3 10 8 -3 18 2 32
12 32 5 0 7 -5 3 -12 -4 -7 -3 -8 4 -4 7 4 12 17 12 29 0 15 3 18 9 9 6 -10
11 -9 22 4 12 15 12 17 0 9 -10 -6 -12 -4 -7 4 5 7 15 10 23 6 13 -4 14 -3 3
10 -7 8 -11 15 -9 16 36 7 40 6 35 -7 -3 -9 -1 -12 4 -9 6 3 7 18 4 33 -5 22
-4 25 7 15 16 -16 29 -17 29 -2 0 5 -4 7 -10 4 -6 -3 -10 0 -10 7 1 15 25 50
34 49 24 -3 30 0 17 8 -9 6 -10 10 -2 16 7 4 20 1 29 -7 15 -11 16 -11 4 3
-10 14 -10 18 4 23 9 3 14 12 11 19 -2 6 5 21 16 32 11 11 17 14 13 8 -4 -7
-2 -13 3 -13 15 0 14 13 -1 29 -11 11 -10 12 1 6 11 -6 13 -4 7 10 -6 16 -4
16 11 4 15 -13 16 -12 11 8 -5 21 -4 22 15 11 19 -10 20 -9 9 4 -9 11 -10 18
-2 23 6 3 8 9 6 13 -2 4 2 13 10 19 8 8 15 9 19 3 3 -6 1 -10 -6 -10 -7 0 -10
-2 -7 -5 3 -3 18 2 34 11 23 13 24 15 7 11 -27 -6 -28 -5 -7 34 10 21 20 29
31 25 14 -6 14 -4 2 11 -9 11 -10 14 -1 9 11 -7 17 5 13 28 -1 5 6 6 15 2 12
-4 15 -2 10 9 -7 20 4 46 17 38 6 -4 8 0 4 10 -8 22 2 22 19 0 12 -16 12 -16
7 6 -5 19 -3 22 8 16 12 -7 12 -6 1 7 -10 12 -10 18 2 28 9 6 20 9 27 5 7 -5
7 0 -2 16 -11 21 -10 22 3 12 12 -11 14 -9 14 10 -1 15 4 22 17 21 14 -2 15 1
5 13 -9 11 -9 16 1 23 11 6 11 9 0 13 -14 5 26 11 46 7 5 -1 6 2 2 7 -5 4 -13
9 -18 9 -5 1 -12 2 -16 3 -4 0 2 8 13 17 10 8 13 12 6 9 -11 -6 -12 -3 -3 14
7 11 19 21 28 21 11 0 13 3 5 13 -7 8 -6 18 4 31 8 11 14 16 14 12 0 -5 9 2
19 15 15 19 17 28 8 44 -9 18 -9 19 7 6 9 -8 16 -10 15 -5 -1 5 -1 23 0 39 2
29 2 29 16 11 18 -23 20 -14 4 16 -8 14 -8 18 0 14 6 -4 13 4 17 19 3 14 11
25 18 25 7 0 7 3 1 8 -17 12 -16 32 1 32 10 0 14 5 10 16 -3 8 -2 12 4 9 6 -3
10 -2 10 4 0 5 -6 12 -12 14 -7 3 -2 6 12 6 18 1 21 4 12 10 -11 6 -10 10 3
15 15 5 15 9 4 23 -12 15 -12 16 4 10 9 -3 17 -2 17 3 0 6 -4 10 -8 10 -4 0
-8 9 -8 20 0 10 2 17 5 15 2 -3 10 3 17 13 9 13 9 19 1 25 -7 5 -3 7 11 4 15
-4 20 -1 15 6 -4 7 -8 17 -8 22 -1 16 36 45 48 38 6 -3 7 -1 3 5 -4 6 -14 8
-24 5 -15 -6 -15 -5 -3 10 11 14 11 17 0 17 -11 0 -11 2 1 10 8 5 11 10 6 10
-5 0 -2 8 7 18 12 13 13 22 6 29 -7 7 -4 14 7 24 10 8 15 9 11 2 -4 -6 -3 -14
2 -17 11 -7 9 13 -2 32 -8 12 -7 13 15 16 6 0 12 11 13 23 1 12 -3 19 -8 16
-5 -3 -4 4 2 15 6 12 12 32 13 46 1 13 5 23 8 21 3 -2 11 5 18 15 9 14 9 21 0
26 -7 5 -8 3 -3 -6 6 -9 4 -11 -5 -5 -10 6 -9 11 5 22 11 7 14 13 8 13 -15 0
-10 29 6 40 11 6 11 9 0 13 -11 4 -11 6 -1 6 10 1 10 6 2 21 -9 16 -8 18 5 14
8 -4 15 -2 15 4 0 6 -6 13 -12 15 -10 4 -9 6 1 6 10 1 11 4 2 15 -9 11 -9 16
0 22 8 5 9 3 4 -6 -6 -9 -4 -11 4 -6 9 6 8 13 -6 29 -10 11 -12 17 -5 13 7 -4
13 -2 14 6 0 7 2 18 2 23 1 6 5 16 9 23 5 6 4 12 -1 12 -14 0 -7 39 11 60 11
13 12 20 4 23 -9 3 -8 8 2 20 10 13 10 17 1 17 -10 0 -10 3 -1 14 10 11 8 17
-6 26 -17 11 -17 11 0 6 10 -3 16 -2 13 2 -10 17 -15 62 -5 57 5 -4 9 8 9 25
0 17 4 29 8 26 5 -3 9 1 9 9 0 8 -4 12 -9 9 -4 -3 -8 2 -8 11 0 10 5 13 13 9
7 -5 7 -1 -2 10 -13 15 -13 19 0 27 10 6 10 9 2 9 -7 0 -13 5 -13 11 0 5 6 7
13 3 9 -6 9 -5 0 8 -7 8 -10 18 -6 22 13 13 8 51 -7 58 -11 5 -10 7 5 7 17 1
17 3 5 11 -13 9 -13 10 0 10 13 0 13 2 1 9 -9 6 -11 15 -6 27 12 29 14 45 4
39 -5 -3 -6 12 -3 35 4 29 2 40 -8 40 -10 0 -9 3 2 10 8 5 11 10 6 10 -5 0 -2
8 5 17 10 11 10 14 2 9 -16 -9 -16 -1 -2 26 9 16 8 19 -2 13 -9 -6 -10 -3 -6
8 22 54 22 53 5 39 -14 -11 -16 -10 -11 7 3 12 10 18 17 14 6 -4 5 1 -3 11
-13 15 -13 19 0 27 10 6 10 9 1 9 -12 0 -9 51 5 73 4 6 1 7 -7 2 -10 -6 -12
-4 -7 8 3 9 3 16 -1 16 -20 -3 -23 3 -11 18 12 15 12 16 -1 8 -12 -7 -13 -6
-3 7 7 8 9 18 5 22 -10 10 -9 30 1 37 5 3 0 14 -10 24 -17 17 -17 18 0 12 19
-7 24 8 6 19 -8 4 -7 9 2 15 12 7 12 9 0 9 -11 0 -11 3 0 17 10 11 10 14 2 9
-9 -5 -13 0 -13 14 0 12 -4 18 -10 15 -13 -8 -13 1 0 26 8 14 7 19 -1 19 -9 0
-9 3 0 14 9 11 9 16 0 22 -8 5 -9 3 -4 -7 7 -11 6 -11 -9 1 -17 13 -17 14 1
21 10 5 12 8 4 8 -11 1 -11 4 -1 16 11 13 10 14 -4 9 -13 -5 -15 -2 -9 12 3
11 11 22 17 26 7 5 3 8 -9 8 -15 0 -17 2 -6 9 9 6 10 11 2 15 -8 5 -8 13 -1
26 13 24 13 33 0 25 -5 -3 -7 0 -4 8 3 8 0 18 -5 22 -6 3 -9 11 -5 16 3 5 1
16 -6 24 -8 9 -8 15 0 20 8 5 8 10 0 20 -12 15 -10 36 5 47 6 4 1 8 -10 8 -15
0 -17 3 -7 9 16 9 18 21 5 30 -4 3 -14 17 -22 31 -13 24 -13 24 4 10 17 -14
17 -14 7 7 -14 26 -15 36 -3 29 11 -7 9 13 -2 32 -8 11 -2 16 16 13 5 -1 6 3
2 9 -3 6 -11 8 -16 5 -5 -4 -9 1 -9 9 0 9 -6 16 -12 16 -9 0 -8 4 2 10 9 6 10
10 3 10 -7 0 -10 9 -8 20 2 13 -2 23 -11 27 -13 5 -13 7 -2 14 10 7 11 9 0 9
-7 0 -10 5 -7 10 4 6 12 8 18 4 7 -3 3 2 -7 10 -15 12 -16 16 -5 16 8 0 10 3
4 8 -14 9 -16 63 -2 55 6 -3 7 -1 3 5 -4 7 -15 12 -24 13 -14 0 -13 2 3 8 11
5 25 6 30 3 6 -3 6 -1 2 4 -5 5 -13 10 -18 10 -5 1 -12 2 -15 3 -4 0 2 13 11
29 18 27 18 27 -1 10 -19 -16 -20 -16 -22 9 -1 14 -7 32 -13 39 -11 13 -6 18
14 15 12 -2 8 11 -10 33 -11 13 -12 16 -3 9 12 -9 15 -7 15 12 0 16 -4 21 -15
17 -13 -5 -13 -4 0 13 12 15 12 17 1 10 -11 -6 -13 -4 -8 7 3 9 1 20 -5 26 -6
6 -6 12 3 17 8 6 10 4 4 -5 -5 -9 -4 -11 4 -6 15 9 5 26 -16 26 -13 0 -13 3
-3 15 10 12 10 15 0 15 -10 0 -10 3 0 15 9 10 9 15 1 15 -6 0 -11 5 -11 11 0
5 6 7 13 3 9 -6 9 -4 1 7 -6 8 -10 28 -9 46 1 20 -3 34 -12 37 -11 5 -11 10
-2 27 8 17 8 20 -1 14 -9 -5 -10 -2 -6 12 4 13 0 25 -9 33 -14 12 -14 15 2 32
16 18 16 19 -3 12 -16 -7 -17 -6 -6 8 10 12 10 17 1 20 -8 3 -9 9 -4 18 5 8
10 23 10 32 1 15 -1 15 -14 5 -12 -10 -13 -9 -7 2 5 8 3 17 -5 23 -11 8 -11 9
1 5 10 -3 16 2 16 14 0 13 -5 18 -15 14 -9 -3 -12 -3 -9 0 4 4 3 18 -2 31 -8
19 -6 22 8 18 15 -5 15 -4 1 8 -18 15 -46 63 -31 54 5 -3 13 1 16 10 4 11 2
15 -8 11 -12 -5 -13 -1 -6 19 12 32 12 34 -1 34 -5 0 -7 -5 -3 -12 4 -6 3 -8
-3 -5 -5 3 -9 23 -8 44 1 21 -5 49 -13 63 l-15 25 24 -20 24 -20 -15 20 c-8
11 -17 22 -20 25 -24 24 -30 39 -19 46 8 4 9 3 5 -4 -11 -18 0 -14 15 5 8 9 9
14 3 10 -7 -4 -18 1 -25 10 -12 15 -12 16 3 10 12 -4 15 -2 11 9 -3 7 -10 14
-17 14 -6 0 -4 5 4 10 10 6 11 10 3 10 -8 0 -13 15 -13 41 0 29 -3 38 -12 33
-10 -5 -10 -4 0 7 10 11 8 16 -10 27 -13 7 -16 11 -8 9 12 -4 15 6 15 43 0 27
-4 46 -9 43 -5 -4 -6 -1 -1 6 11 19 12 70 1 68 -6 -1 -12 13 -12 31 -1 17 2
30 7 27 5 -4 6 1 3 9 -3 9 -10 14 -15 11 -4 -3 -6 4 -4 15 2 11 0 20 -6 20 -5
0 -9 9 -9 21 0 12 4 17 11 14 6 -4 5 2 -2 13 -7 12 -18 18 -24 14 -5 -3 -3 3
5 13 8 10 10 16 5 13 -6 -4 -17 3 -25 15 -12 20 -12 21 3 8 21 -17 22 -8 1 13
-13 14 -14 16 0 16 8 0 17 4 20 9 3 4 -5 7 -19 6 -17 -2 -22 1 -18 11 3 8 -1
22 -8 32 -13 15 -12 16 3 4 12 -10 18 -10 24 -1 4 7 3 10 -2 7 -5 -3 -15 0
-22 8 -8 9 -9 14 -2 14 6 0 8 5 5 10 -4 6 -12 7 -18 3 -8 -4 -8 -1 1 9 10 13
10 19 -4 32 -9 9 -14 23 -11 31 3 7 1 16 -6 19 -8 3 -8 5 2 5 9 1 8 6 -6 19
-10 9 -12 13 -4 7 12 -8 12 -7 3 12 -7 12 -9 30 -6 40 6 16 5 16 -10 -2 -16
-19 -16 -18 -1 19 13 34 13 37 0 26 -9 -7 -18 -10 -22 -6 -3 3 -2 6 4 6 6 0
14 7 17 16 3 8 2 12 -3 9 -5 -3 -12 -1 -16 5 -3 5 -1 10 6 10 7 0 4 7 -7 16
-18 15 -18 15 0 10 15 -5 17 -4 8 7 -7 8 -8 18 -4 22 4 5 2 5 -5 1 -6 -3 -14
-2 -18 4 -3 5 -1 10 6 10 8 0 9 3 0 13 -6 8 -8 17 -4 20 3 4 0 7 -7 7 -7 0
-10 3 -7 7 4 3 2 12 -4 20 -9 9 -8 13 0 13 6 0 11 5 11 10 0 6 -3 9 -7 9 -20
-3 -26 2 -13 11 13 8 12 10 -3 10 -15 0 -16 3 -7 20 6 11 7 20 3 19 -22 -4
-32 2 -26 17 3 9 0 20 -8 25 -12 7 -12 9 1 9 13 0 13 1 0 10 -12 8 -12 10 5
10 16 1 14 4 -10 16 -16 8 -23 13 -15 10 11 -2 15 5 15 29 0 27 -3 31 -13 22
-11 -9 -13 -5 -11 18 4 35 -8 58 -23 49 -7 -5 -8 -2 -4 5 5 7 0 19 -10 27 -11
9 -13 12 -5 8 10 -5 11 -1 6 16 -4 13 -3 20 2 17 5 -4 10 0 10 7 0 8 -8 12
-21 9 -17 -4 -18 -3 -6 6 10 7 11 11 3 11 -7 0 -13 5 -13 11 0 5 5 7 10 4 6
-3 10 -1 10 4 0 6 -5 11 -12 11 -6 0 -3 7 8 15 14 11 15 14 2 9 -11 -4 -21 2
-29 18 -12 22 -11 22 7 8 17 -14 18 -13 7 1 -7 9 -10 19 -6 23 4 4 -1 4 -11 0
-16 -6 -17 -4 -7 14 10 18 9 22 -4 22 -9 0 -15 9 -15 26 0 14 -4 23 -9 19 -6
-3 -8 4 -6 15 3 13 -2 20 -13 21 -14 0 -14 2 2 8 19 7 18 8 -5 14 -23 7 -23 8
-5 22 14 11 16 15 5 15 -12 0 -12 2 1 10 13 8 12 10 -4 10 -11 0 -17 3 -13 6
3 4 -4 15 -16 25 -13 11 -17 18 -9 19 11 0 10 3 -1 14 -9 9 -12 26 -9 42 3 15
1 25 -4 22 -5 -3 -18 3 -29 14 -17 16 -17 18 -2 13 9 -4 17 -3 17 3 0 6 -5 12
-11 14 -5 2 -11 18 -11 35 -1 18 -5 30 -10 27 -4 -3 -8 5 -8 17 0 12 -7 27
-16 33 -9 7 -17 24 -17 38 -1 14 -5 24 -9 22 -4 -2 -9 0 -13 6 -3 5 0 10 7 10
10 0 10 2 -1 9 -8 5 -10 14 -6 21 6 9 4 11 -5 5 -10 -6 -12 -4 -7 9 5 13 3 17
-7 13 -10 -4 -12 0 -8 15 4 17 2 20 -12 15 -9 -4 -15 -3 -12 1 3 5 -1 21 -9
36 -8 14 -10 24 -5 21 5 -3 12 -1 15 5 4 6 3 10 -2 9 -20 -3 -34 2 -28 11 3 6
1 10 -5 10 -6 0 -8 5 -5 10 3 6 1 10 -6 10 -8 0 -8 5 2 18 7 9 10 14 5 10 -10
-8 -36 15 -36 32 0 6 -5 8 -12 4 -8 -5 -7 0 2 11 9 11 10 16 3 11 -13 -7 -18
9 -14 44 2 13 1 13 -8 0 -10 -15 -12 -14 -15 13 -1 6 -7 11 -14 10 -6 -2 -9 4
-6 12 4 9 0 15 -9 15 -10 0 -13 7 -10 20 5 19 -5 26 -31 21 -5 -1 -4 5 4 13 7
9 9 17 4 17 -5 1 -16 2 -24 3 -8 0 -15 8 -15 16 0 8 -6 19 -13 23 -7 5 -9 14
-5 20 4 7 -2 5 -12 -3 -17 -14 -18 -14 -7 6 10 19 9 23 -14 28 -22 6 -24 9
-12 23 11 15 10 16 -9 11 -12 -3 -22 -3 -21 1 1 3 -2 14 -7 24 -6 14 -10 15
-24 5 -9 -7 -13 -8 -9 -4 4 5 -5 20 -20 34 -15 13 -21 21 -14 18 6 -4 12 -2
12 3 0 6 -4 11 -9 11 -16 0 -57 46 -53 59 3 9 0 11 -8 6 -8 -5 -18 -1 -26 10
-8 10 -20 15 -29 11 -9 -3 -14 -2 -11 2 2 4 -7 21 -21 37 -14 17 -22 25 -19
18 10 -19 -49 14 -76 42 -13 14 -31 25 -41 25 -10 0 -16 3 -14 8 6 8 -13 26
-32 30 -7 1 -20 -3 -28 -9 -8 -7 -13 -8 -12 -3 4 25 -2 36 -21 31 -10 -3 -24
1 -31 9 -6 8 -16 11 -23 7 -7 -5 -7 -2 1 8 10 12 8 15 -7 15 -10 0 -17 -3 -15
-6 2 -4 -2 -7 -10 -7 -8 0 -12 4 -9 9 3 4 -2 8 -10 8 -9 0 -31 9 -51 20 -20
11 -44 20 -55 20 -10 0 -24 8 -30 18 -10 15 -11 14 -7 -6 3 -12 1 -20 -4 -16
-5 3 -9 15 -10 27 0 20 -1 21 -8 3 -7 -18 -8 -18 -14 -2 -6 15 -10 16 -22 6
-12 -10 -15 -10 -15 1 0 10 -3 10 -12 1 -15 -15 -31 -16 -22 -1 4 7 1 10 -7 7
-8 -3 -22 -1 -31 4 -12 6 -18 5 -18 -2 0 -6 -5 -8 -10 -5 -6 4 -7 12 -3 18 5
9 3 9 -8 0 -17 -14 -89 -15 -89 -1 0 14 -62 7 -81 -9 -14 -12 -17 -12 -22 2
-5 11 -19 14 -55 13 -29 -2 -48 -7 -46 -13z m-2272 -853 c3 -5 -1 -9 -9 -9 -8
0 -12 4 -9 9 3 4 7 8 9 8 2 0 6 -4 9 -8z m-1209 -5322 c3 -5 2 -10 -4 -10 -5
0 -13 5 -16 10 -3 6 -2 10 4 10 5 0 13 -4 16 -10z m5605 -1176 c0 -8 -19 -13
-24 -6 -3 5 1 9 9 9 8 0 15 -2 15 -3z"/>
<path d="M3735 9201 c-3 -5 -2 -12 3 -15 5 -3 9 1 9 9 0 17 -3 19 -12 6z"/>
<path d="M1877 5629 c-4 -16 -3 -18 9 -8 7 6 11 15 8 20 -8 13 -11 11 -17 -12z"/>
<path d="M7680 5446 c0 -2 8 -10 18 -17 15 -13 16 -12 3 4 -13 16 -21 21 -21
13z"/>
<path d="M1850 5419 c0 -5 5 -7 10 -4 6 3 10 8 10 11 0 2 -4 4 -10 4 -5 0 -10
-5 -10 -11z"/>
<path d="M1795 5321 c-3 -5 -2 -12 3 -15 5 -3 9 1 9 9 0 17 -3 19 -12 6z"/>
<path d="M7720 5279 c0 -5 5 -7 10 -4 6 3 10 8 10 11 0 2 -4 4 -10 4 -5 0 -10
-5 -10 -11z"/>
<path d="M1796 4842 c-3 -5 1 -9 9 -9 8 0 12 4 9 9 -3 4 -7 8 -9 8 -2 0 -6 -4
-9 -8z"/>
<path d="M7796 4833 c-6 -14 -5 -15 5 -6 7 7 10 15 7 18 -3 3 -9 -2 -12 -12z"/>
<path d="M1794 3788 l-19 -23 23 19 c21 18 27 26 19 26 -2 0 -12 -10 -23 -22z"/>
<path d="M7875 3570 c10 -11 20 -20 23 -20 3 0 -3 9 -13 20 -10 11 -20 20 -23
20 -3 0 3 -9 13 -20z"/>
<path d="M7835 3369 c-4 -6 -5 -12 -2 -15 2 -3 7 2 10 11 7 17 1 20 -8 4z"/>
<path d="M1890 3299 c0 -5 5 -7 10 -4 6 3 10 8 10 11 0 2 -4 4 -10 4 -5 0 -10
-5 -10 -11z"/>
<path d="M7835 3280 c3 -5 8 -10 11 -10 2 0 4 5 4 10 0 6 -5 10 -11 10 -5 0
-7 -4 -4 -10z"/>
<path d="M7786 3098 c3 -5 10 -6 15 -3 13 9 11 12 -6 12 -8 0 -12 -4 -9 -9z"/>
<path d="M1915 3021 c-3 -5 -2 -12 3 -15 5 -3 9 1 9 9 0 17 -3 19 -12 6z"/>
<path d="M7695 2800 c-3 -5 -1 -10 4 -10 6 0 11 5 11 10 0 6 -2 10 -4 10 -3 0
-8 -4 -11 -10z"/>
<path d="M2067 2599 c7 -7 15 -10 18 -7 3 3 -2 9 -12 12 -14 6 -15 5 -6 -5z"/>
<path d="M7636 2513 c-6 -14 -5 -15 5 -6 7 7 10 15 7 18 -3 3 -9 -2 -12 -12z"/>
<path d="M2256 2262 c-3 -5 1 -9 9 -9 8 0 12 4 9 9 -3 4 -7 8 -9 8 -2 0 -6 -4
-9 -8z"/>
<path d="M7426 2168 c3 -5 10 -6 15 -3 13 9 11 12 -6 12 -8 0 -12 -4 -9 -9z"/>
<path d="M2310 2142 c0 -4 10 -9 22 -9 18 -2 20 0 8 7 -18 12 -30 13 -30 2z"/>
<path d="M7375 2031 c-3 -5 -2 -12 3 -15 5 -3 9 1 9 9 0 17 -3 19 -12 6z"/>
<path d="M2396 2002 c-3 -4 4 -9 15 -9 23 -2 25 3 4 10 -8 4 -16 3 -19 -1z"/>
<path d="M7315 1980 c-3 -5 -1 -10 4 -10 6 0 11 5 11 10 0 6 -2 10 -4 10 -3 0
-8 -4 -11 -10z"/>
<path d="M7266 1898 c3 -5 10 -6 15 -3 13 9 11 12 -6 12 -8 0 -12 -4 -9 -9z"/>
<path d="M2479 1853 c-13 -16 -12 -17 4 -4 9 7 17 15 17 17 0 8 -8 3 -21 -13z"/>
<path d="M7199 1793 c-13 -16 -12 -17 4 -4 16 13 21 21 13 21 -2 0 -10 -8 -17
-17z"/>
<path d="M7150 1726 c0 -2 7 -7 16 -10 8 -3 12 -2 9 4 -6 10 -25 14 -25 6z"/>
<path d="M2570 1706 c0 -2 7 -7 16 -10 8 -3 12 -2 9 4 -6 10 -25 14 -25 6z"/>
<path d="M7130 1660 c0 -5 5 -10 11 -10 5 0 7 5 4 10 -3 6 -8 10 -11 10 -2 0
-4 -4 -4 -10z"/>
<path d="M2636 1618 c3 -5 10 -6 15 -3 13 9 11 12 -6 12 -8 0 -12 -4 -9 -9z"/>
<path d="M7066 1598 c3 -5 10 -6 15 -3 13 9 11 12 -6 12 -8 0 -12 -4 -9 -9z"/>
<path d="M2795 1389 c-4 -6 -5 -12 -2 -15 2 -3 7 2 10 11 7 17 1 20 -8 4z"/>
<path d="M2900 1380 c0 -5 5 -10 11 -10 5 0 7 5 4 10 -3 6 -8 10 -11 10 -2 0
-4 -4 -4 -10z"/>
<path d="M6855 1349 c-4 -6 -5 -12 -2 -15 2 -3 7 2 10 11 7 17 1 20 -8 4z"/>
<path d="M6629 1163 c-13 -16 -12 -17 4 -4 9 7 17 15 17 17 0 8 -8 3 -21 -13z"/>
<path d="M6653 1145 c0 -8 4 -12 9 -9 5 3 6 10 3 15 -9 13 -12 11 -12 -6z"/>
<path d="M3155 1120 c3 -5 8 -10 11 -10 2 0 4 5 4 10 0 6 -5 10 -11 10 -5 0
-7 -4 -4 -10z"/>
<path d="M6576 1118 c3 -5 10 -6 15 -3 13 9 11 12 -6 12 -8 0 -12 -4 -9 -9z"/>
<path d="M3230 1110 c-12 -7 -10 -9 7 -7 12 0 19 5 17 9 -6 10 -6 10 -24 -2z"/>
<path d="M6559 1053 c-12 -16 -12 -17 2 -6 9 7 20 9 24 5 5 -4 5 -1 1 6 -9 16
-11 15 -27 -5z"/>
<path d="M3236 1047 c3 -10 9 -15 12 -12 3 3 0 11 -7 18 -10 9 -11 8 -5 -6z"/>
<path d="M3306 1042 c-2 -4 4 -8 14 -8 10 0 16 4 14 8 -3 4 -9 8 -14 8 -5 0
-11 -4 -14 -8z"/>
<path d="M3353 1025 c0 -7 6 -11 14 -8 7 3 13 6 13 8 0 2 -6 5 -13 8 -8 3 -14
-1 -14 -8z"/>
<path d="M6456 1028 c3 -5 10 -6 15 -3 13 9 11 12 -6 12 -8 0 -12 -4 -9 -9z"/>
<path d="M6475 1010 c-4 -6 -10 -8 -15 -5 -5 3 -11 1 -14 -4 -8 -13 22 -7 36
7 7 7 9 12 6 12 -4 0 -10 -5 -13 -10z"/>
<path d="M3446 958 c3 -5 10 -6 15 -3 13 9 11 12 -6 12 -8 0 -12 -4 -9 -9z"/>
<path d="M6380 926 c0 -2 8 -10 18 -17 15 -13 16 -12 3 4 -13 16 -21 21 -21
13z"/>
<path d="M3535 900 c3 -5 8 -10 11 -10 2 0 4 5 4 10 0 6 -5 10 -11 10 -5 0 -7
-4 -4 -10z"/>
<path d="M3622 893 c-6 -2 -9 -9 -6 -15 4 -7 9 -6 14 2 11 18 29 3 25 -20 -2
-12 0 -18 5 -15 9 6 8 24 -3 43 -9 13 -14 14 -35 5z"/>
<path d="M6286 881 c-3 -4 4 -7 14 -6 27 2 33 10 10 12 -11 1 -22 -2 -24 -6z"/>
<path d="M3571 847 c-13 -21 -12 -21 5 -5 10 10 16 20 13 22 -3 3 -11 -5 -18
-17z"/>
<path d="M3685 860 c-4 -6 -3 -10 2 -9 21 4 24 -2 12 -18 -13 -16 -12 -17 4
-4 13 10 15 17 6 27 -14 17 -16 17 -24 4z"/>
<path d="M3650 819 c0 -5 5 -7 10 -4 6 3 10 8 10 11 0 2 -4 4 -10 4 -5 0 -10
-5 -10 -11z"/>
<path d="M6235 820 c3 -5 8 -10 11 -10 2 0 4 5 4 10 0 6 -5 10 -11 10 -5 0 -7
-4 -4 -10z"/>
<path d="M6045 789 c-4 -6 -5 -12 -2 -15 2 -3 7 2 10 11 7 17 1 20 -8 4z"/>
<path d="M3730 779 c0 -5 5 -7 10 -4 6 3 10 8 10 11 0 2 -4 4 -10 4 -5 0 -10
-5 -10 -11z"/>
<path d="M3816 758 c3 -5 10 -6 15 -3 13 9 11 12 -6 12 -8 0 -12 -4 -9 -9z"/>
<path d="M3890 750 c0 -5 5 -10 11 -10 5 0 7 5 4 10 -3 6 -8 10 -11 10 -2 0
-4 -4 -4 -10z"/>
<path d="M3896 718 c3 -5 10 -6 15 -3 13 9 11 12 -6 12 -8 0 -12 -4 -9 -9z"/>
<path d="M5910 720 c0 -5 5 -10 10 -10 6 0 10 5 10 10 0 6 -4 10 -10 10 -5 0
-10 -4 -10 -10z"/>
<path d="M3953 705 c0 -8 4 -12 9 -9 5 3 6 10 3 15 -9 13 -12 11 -12 -6z"/>
<path d="M4023 709 c9 -6 14 -15 11 -21 -4 -7 -2 -8 5 -4 14 9 -3 36 -23 36
-6 0 -3 -5 7 -11z"/>
<path d="M4073 685 c0 -8 4 -15 9 -15 4 0 8 4 8 9 0 6 -4 12 -8 15 -5 3 -9 -1
-9 -9z"/>
<path d="M5773 686 c-3 -6 -3 -8 2 -4 4 4 13 3 20 -2 8 -7 12 -5 12 3 0 16
-25 18 -34 3z"/>
<path d="M5833 685 c0 -8 4 -15 9 -15 4 0 8 4 8 9 0 6 -4 12 -8 15 -5 3 -9 -1
-9 -9z"/>
<path d="M5727 679 c7 -7 15 -10 18 -7 3 3 -2 9 -12 12 -14 6 -15 5 -6 -5z"/>
<path d="M5870 679 c0 -5 5 -7 10 -4 6 3 10 8 10 11 0 2 -4 4 -10 4 -5 0 -10
-5 -10 -11z"/>
<path d="M4127 659 c7 -7 15 -10 18 -7 3 3 -2 9 -12 12 -14 6 -15 5 -6 -5z"/>
<path d="M4210 660 c0 -5 5 -10 11 -10 5 0 7 5 4 10 -3 6 -8 10 -11 10 -2 0
-4 -4 -4 -10z"/>
<path d="M5680 640 c-9 -6 -10 -10 -3 -10 6 0 15 5 18 10 8 12 4 12 -15 0z"/>
<path d="M5710 640 c0 -4 7 -7 15 -6 23 3 26 12 5 13 -11 1 -20 -2 -20 -7z"/>
<path d="M4176 627 c3 -10 9 -15 12 -12 3 3 0 11 -7 18 -10 9 -11 8 -5 -6z"/>
<path d="M5415 609 c-4 -6 -5 -12 -2 -15 2 -3 7 2 10 11 7 17 1 20 -8 4z"/>
<path d="M5576 607 c3 -10 9 -15 12 -12 3 3 0 11 -7 18 -10 9 -11 8 -5 -6z"/>
<path d="M4310 599 c0 -5 5 -7 10 -4 6 3 10 8 10 11 0 2 -4 4 -10 4 -5 0 -10
-5 -10 -11z"/>
<path d="M4491 594 c0 -11 3 -14 6 -6 3 7 2 16 -1 19 -3 4 -6 -2 -5 -13z"/>
<path d="M5436 602 c-3 -5 1 -9 9 -9 8 0 12 4 9 9 -3 4 -7 8 -9 8 -2 0 -6 -4
-9 -8z"/>
<path d="M4514 588 c-4 -7 -4 -10 1 -6 4 4 15 2 24 -5 14 -11 14 -10 2 6 -16
20 -18 21 -27 5z"/>
<path d="M4576 588 c3 -5 10 -6 15 -3 13 9 11 12 -6 12 -8 0 -12 -4 -9 -9z"/>
<path d="M4646 586 c7 -19 20 -21 30 -3 4 6 4 9 -1 5 -4 -4 -14 -3 -22 4 -11
8 -12 7 -7 -6z"/>
<path d="M5174 578 c-4 -5 -3 -12 0 -15 3 -4 6 -1 6 5 0 6 7 9 15 6 8 -4 15
-2 15 3 0 12 -29 13 -36 1z"/>
<path d="M4776 568 c3 -5 10 -6 15 -3 13 9 11 12 -6 12 -8 0 -12 -4 -9 -9z"/>
<path d="M4740 559 c0 -5 5 -7 10 -4 6 3 10 8 10 11 0 2 -4 4 -10 4 -5 0 -10
-5 -10 -11z"/>
<path d="M5086 562 c-3 -5 1 -9 9 -9 8 0 15 4 15 9 0 4 -4 8 -9 8 -6 0 -12 -4
-15 -8z"/>
<path d="M4535 551 c-3 -5 -2 -12 3 -15 5 -3 9 1 9 9 0 17 -3 19 -12 6z"/>
<path d="M4927 539 c7 -7 15 -10 18 -7 3 3 -2 9 -12 12 -14 6 -15 5 -6 -5z"/>
<path d="M4980 540 c-9 -6 -10 -10 -3 -10 6 0 15 5 18 10 8 12 4 12 -15 0z"/>
<path d="M5060 546 c0 -2 8 -10 18 -17 15 -13 16 -12 3 4 -13 16 -21 21 -21
13z"/>
<path d="M5255 540 c3 -5 8 -10 11 -10 2 0 4 5 4 10 0 6 -5 10 -11 10 -5 0 -7
-4 -4 -10z"/>
<path d="M5370 545 c0 -7 30 -13 34 -7 3 4 -4 9 -15 9 -10 1 -19 0 -19 -2z"/>
<path d="M4815 531 c-3 -5 -2 -12 3 -15 5 -3 9 1 9 9 0 17 -3 19 -12 6z"/>
<path d="M4886 518 c3 -5 10 -6 15 -3 13 9 11 12 -6 12 -8 0 -12 -4 -9 -9z"/>
<path d="M5000 515 c-7 -9 -11 -17 -9 -20 3 -2 10 5 17 15 14 24 10 26 -8 5z"/>
<path d="M4916 498 c3 -4 11 -5 19 -1 21 7 19 12 -4 10 -11 0 -18 -5 -15 -9z"/>
</g>
</svg>
